<?xml version="1.0" encoding="UTF-8"?>
<svg id="Ebene_1" data-name="Ebene 1" xmlns="http://www.w3.org/2000/svg" viewBox="0 0 93 83">
  <defs>
    <style>
      .cls-1 {
        fill: #a76f38;
        stroke-width: 0px;
      }

      .cls-2, .cls-3 {
        fill: none;
        stroke: #1d1d1b;
      }

      .cls-3 {
        stroke-linecap: round;
        stroke-linejoin: round;
      }
    </style>
  </defs>
  <path class="cls-2" d="M69.27,81.4H24.29c-7.5-13.28-15.01-26.55-22.51-39.83C9.28,28.29,16.78,15.02,24.29,1.74h44.98c7.5,13.28,15.01,26.55,22.51,39.83-7.5,13.28-15.01,26.55-22.51,39.83Z"/>
  <g>
    <path class="cls-1" d="M45.55,38.98c2.08,2.44,1.81,6.09-.64,8.19-2.45,2.09-6.1,1.8-8.19-.65-3.49-4.08-3.73-11.08-3.67-13.29,2.34.38,9.07,1.73,12.5,5.75"/>
    <path class="cls-1" d="M45.61,56.68c2.08,2.44,1.81,6.09-.64,8.19-2.45,2.09-6.1,1.8-8.19-.65-3.49-4.08-3.73-11.08-3.67-13.29,2.34.38,9.07,1.73,12.5,5.75"/>
    <path class="cls-1" d="M48.68,39.16c-2.08,2.44-1.81,6.09.64,8.19,2.45,2.09,6.1,1.8,8.19-.65,3.49-4.08,3.73-11.08,3.67-13.29-2.34.38-9.07,1.73-12.5,5.75"/>
    <path class="cls-1" d="M48.62,56.86c-2.08,2.44-1.81,6.09.64,8.19,2.45,2.09,6.1,1.8,8.19-.65,3.49-4.08,3.73-11.08,3.67-13.29-2.34.38-9.07,1.73-12.5,5.75"/>
    <path class="cls-1" d="M41.23,29.86c0,3.21,2.58,5.81,5.81,5.81s5.81-2.6,5.81-5.81c0-5.37-4.36-10.85-5.84-12.5-1.54,1.81-5.77,7.21-5.77,12.5"/>
    <path class="cls-3" d="M39.27,28.19c0,4.14,3.34,7.49,7.49,7.49s7.49-3.36,7.49-7.49c0-6.93-5.63-14-7.53-16.13-1.99,2.33-7.45,9.3-7.45,16.13Z"/>
    <path class="cls-3" d="M48.63,36.67c-2.69,3.15-2.33,7.87.83,10.57,3.16,2.7,7.88,2.31,10.57-.83,4.5-5.27,4.81-14.3,4.74-17.16-3.03.49-11.71,2.23-16.14,7.42Z"/>
    <path class="cls-3" d="M48.52,53.99c-2.69,3.15-2.33,7.87.83,10.57,3.16,2.7,7.88,2.31,10.57-.83,4.5-5.27,4.81-14.3,4.74-17.16-3.03.49-11.71,2.23-16.14,7.42Z"/>
    <path class="cls-3" d="M44.93,36.67c2.69,3.15,2.33,7.87-.83,10.57-3.16,2.7-7.88,2.31-10.57-.83-4.5-5.27-4.81-14.3-4.74-17.16,3.03.49,11.71,2.23,16.14,7.42Z"/>
    <path class="cls-3" d="M45,53.99c2.69,3.15,2.33,7.87-.83,10.57-3.16,2.7-7.88,2.31-10.57-.83-4.5-5.27-4.81-14.3-4.74-17.16,3.03.49,11.71,2.23,16.14,7.42Z"/>
    <line class="cls-3" x1="46.67" y1="36.36" x2="46.67" y2="71.08"/>
  </g>
</svg>