<?xml version="1.0" encoding="UTF-8"?>
<svg id="Ebene_1" data-name="Ebene 1" xmlns="http://www.w3.org/2000/svg" viewBox="0 0 50 50">
  <defs>
    <style>
      .cls-1, .cls-2 {
        fill: none;
        stroke: #1d1d1b;
        stroke-width: .36px;
      }

      .cls-2 {
        stroke-linecap: round;
        stroke-linejoin: round;
      }
    </style>
  </defs>
  <g>
    <path class="cls-1" d="M35.53,43.32H14.48c-3.51-6.21-7.02-12.42-10.53-18.63,3.51-6.21,7.02-12.42,10.53-18.63h21.05c3.51,6.21,7.02,12.42,10.53,18.63-3.51,6.21-7.02,12.42-10.53,18.63Z"/>
    <path class="cls-2" d="M22.11,20.35c0,1.67,1.35,3.03,3.03,3.03s3.03-1.36,3.03-3.03c0-2.8-2.28-5.66-3.05-6.52-.8.94-3.01,3.76-3.01,6.52Z"/>
    <path class="cls-2" d="M25.9,23.78c-1.09,1.27-.94,3.18.33,4.27,1.28,1.09,3.19.94,4.27-.34,1.82-2.13,1.94-5.78,1.92-6.94-1.22.2-4.73.9-6.52,3Z"/>
    <path class="cls-2" d="M25.85,30.78c-1.09,1.27-.94,3.18.33,4.27,1.28,1.09,3.19.94,4.27-.34,1.82-2.13,1.94-5.78,1.92-6.94-1.22.2-4.73.9-6.52,3Z"/>
    <path class="cls-2" d="M24.4,23.78c1.09,1.27.94,3.18-.34,4.27-1.28,1.09-3.19.94-4.27-.34-1.82-2.13-1.95-5.78-1.92-6.94,1.22.2,4.73.9,6.53,3Z"/>
    <path class="cls-2" d="M24.43,30.78c1.09,1.27.94,3.18-.34,4.27-1.28,1.09-3.19.94-4.27-.34-1.82-2.13-1.95-5.78-1.92-6.94,1.22.2,4.73.9,6.53,3Z"/>
  </g>
  <line class="cls-2" x1="25.11" y1="23.65" x2="25.11" y2="37.69"/>
  <line class="cls-1" x1="14.59" y1="5.92" x2="35.52" y2="43.09"/>
</svg>