<?xml version="1.0" encoding="UTF-8"?>
<svg id="Ebene_1" data-name="Ebene 1" xmlns="http://www.w3.org/2000/svg" viewBox="0 0 50 50">
  <defs>
    <style>
      .cls-1 {
        fill: #1d1d1b;
      }

      .cls-2, .cls-3 {
        fill: none;
        stroke: #1d1d1b;
        stroke-width: .36px;
      }

      .cls-4 {
        fill: #c6a07b;
      }

      .cls-3 {
        stroke-linecap: round;
        stroke-linejoin: round;
      }
    </style>
  </defs>
  <g>
    <path class="cls-2" d="M35.53,43.63H14.48c-3.51-6.21-7.02-12.42-10.53-18.63,3.51-6.21,7.02-12.42,10.53-18.63h21.05c3.51,6.21,7.02,12.42,10.53,18.63-3.51,6.21-7.02,12.42-10.53,18.63Z"/>
    <path class="cls-1" d="M24.85,13.15c1.09,0,1.97-.88,1.97-1.97s-.88-1.97-1.97-1.97-1.97.88-1.97,1.97.88,1.97,1.97,1.97"/>
    <path class="cls-4" d="M24.51,27.63c.83.98.72,2.44-.26,3.27-.98.84-2.44.72-3.27-.26-1.39-1.63-1.49-4.43-1.47-5.32.94.15,3.63.69,5,2.3"/>
    <path class="cls-4" d="M24.53,34.71c.83.98.72,2.44-.26,3.27-.98.84-2.44.72-3.27-.26-1.39-1.63-1.49-4.43-1.47-5.32.94.15,3.63.69,5,2.3"/>
    <path class="cls-4" d="M25.76,27.71c-.83.98-.72,2.44.26,3.27.98.84,2.44.72,3.27-.26,1.39-1.63,1.49-4.43,1.47-5.32-.94.15-3.63.69-5,2.3"/>
    <path class="cls-4" d="M25.74,34.78c-.83.98-.72,2.44.26,3.27.98.84,2.44.72,3.27-.26,1.39-1.63,1.49-4.43,1.47-5.32-.94.15-3.63.69-5,2.3"/>
    <path class="cls-4" d="M22.78,23.99c0,1.28,1.03,2.32,2.32,2.32s2.32-1.04,2.32-2.32c0-2.15-1.74-4.34-2.33-5-.62.72-2.31,2.88-2.31,5"/>
    <path class="cls-3" d="M22,23.32c0,1.66,1.33,3,3,3s3-1.34,3-3c0-2.77-2.25-5.6-3.01-6.45-.79.93-2.98,3.72-2.98,6.45Z"/>
    <path class="cls-3" d="M25.74,26.71c-1.08,1.26-.93,3.15.33,4.23,1.26,1.08,3.15.93,4.23-.33,1.8-2.11,1.92-5.72,1.9-6.86-1.21.19-4.68.89-6.45,2.97Z"/>
    <path class="cls-3" d="M25.7,33.64c-1.08,1.26-.93,3.15.33,4.23,1.26,1.08,3.15.93,4.23-.33,1.8-2.11,1.92-5.72,1.9-6.86-1.21.19-4.68.89-6.45,2.97Z"/>
    <path class="cls-3" d="M24.26,26.71c1.07,1.26.93,3.15-.33,4.23-1.26,1.08-3.15.93-4.22-.33-1.8-2.11-1.92-5.72-1.9-6.86,1.21.19,4.68.89,6.45,2.97Z"/>
    <path class="cls-3" d="M24.29,33.64c1.07,1.26.93,3.15-.33,4.23-1.26,1.08-3.15.93-4.22-.33-1.8-2.11-1.92-5.72-1.9-6.86,1.21.19,4.68.89,6.45,2.97Z"/>
  </g>
  <line class="cls-3" x1="24.96" y1="26.59" x2="24.96" y2="40.47"/>
</svg>