<?xml version="1.0" encoding="UTF-8"?>
<svg id="Ebene_1" data-name="Ebene 1" xmlns="http://www.w3.org/2000/svg" viewBox="0 0 50 50">
  <defs>
    <style>
      .cls-1 {
        fill: #a76f38;
      }

      .cls-2 {
        stroke-width: 1.08px;
      }

      .cls-2, .cls-3 {
        fill: none;
        stroke: #1d1d1b;
      }

      .cls-3 {
        stroke-linecap: round;
        stroke-linejoin: round;
        stroke-width: .72px;
      }
    </style>
  </defs>
  <path class="cls-2" d="M35.32,43.27H14.69c-3.44-6.09-6.88-12.18-10.33-18.27,3.44-6.09,6.88-12.18,10.33-18.27h20.63c3.44,6.09,6.88,12.18,10.32,18.27-3.44,6.09-6.88,12.18-10.32,18.27Z"/>
  <g>
    <path class="cls-1" d="M24.51,23.96c.83.98.72,2.44-.26,3.27-.98.84-2.44.72-3.27-.26-1.39-1.63-1.49-4.43-1.47-5.32.94.15,3.63.69,5,2.3"/>
    <path class="cls-1" d="M24.53,31.04c.83.98.72,2.44-.26,3.27-.98.84-2.44.72-3.27-.26-1.39-1.63-1.49-4.43-1.47-5.32.94.15,3.63.69,5,2.3"/>
    <path class="cls-1" d="M25.76,24.03c-.83.98-.72,2.44.26,3.27.98.84,2.44.72,3.27-.26,1.39-1.63,1.49-4.43,1.47-5.32-.94.15-3.63.69-5,2.3"/>
    <path class="cls-1" d="M25.74,31.11c-.83.98-.72,2.44.26,3.27.98.84,2.44.72,3.27-.26,1.39-1.63,1.49-4.43,1.47-5.32-.94.15-3.63.69-5,2.3"/>
    <path class="cls-1" d="M22.78,20.32c0,1.28,1.03,2.32,2.32,2.32s2.32-1.04,2.32-2.32c0-2.15-1.74-4.34-2.33-5-.62.72-2.31,2.88-2.31,5"/>
    <path class="cls-3" d="M22,19.65c0,1.66,1.33,3,3,3s3-1.34,3-3c0-2.77-2.25-5.6-3.01-6.45-.79.93-2.98,3.72-2.98,6.45Z"/>
    <path class="cls-3" d="M25.74,23.04c-1.08,1.26-.93,3.15.33,4.23,1.26,1.08,3.15.93,4.23-.33,1.8-2.11,1.92-5.72,1.9-6.86-1.21.19-4.68.89-6.45,2.97Z"/>
    <path class="cls-3" d="M25.7,29.97c-1.08,1.26-.93,3.15.33,4.23,1.26,1.08,3.15.93,4.23-.33,1.8-2.11,1.92-5.72,1.9-6.86-1.21.19-4.68.89-6.45,2.97Z"/>
    <path class="cls-3" d="M24.26,23.04c1.07,1.26.93,3.15-.33,4.23-1.26,1.08-3.15.93-4.22-.33-1.8-2.11-1.92-5.72-1.9-6.86,1.21.19,4.68.89,6.45,2.97Z"/>
    <path class="cls-3" d="M24.29,29.97c1.07,1.26.93,3.15-.33,4.23-1.26,1.08-3.15.93-4.22-.33-1.8-2.11-1.92-5.72-1.9-6.86,1.21.19,4.68.89,6.45,2.97Z"/>
    <line class="cls-3" x1="24.96" y1="22.92" x2="24.96" y2="36.8"/>
  </g>
</svg>