<?xml version="1.0" encoding="UTF-8"?>
<svg id="Ebene_1" data-name="Ebene 1" xmlns="http://www.w3.org/2000/svg" xmlns:xlink="http://www.w3.org/1999/xlink" viewBox="0 0 50 50">
  <defs>
    <style>
      .cls-1, .cls-2 {
        fill: none;
      }

      .cls-2 {
        stroke: #1d1d1b;
        stroke-linecap: round;
        stroke-linejoin: round;
        stroke-width: .8px;
      }

      .cls-3 {
        fill: #f8d342;
      }

      .cls-4 {
        clip-path: url(#clippath);
      }
    </style>
    <clipPath id="clippath">
      <rect class="cls-1" x="13.23" y="9.4" width="23.55" height="31.2"/>
    </clipPath>
  </defs>
  <g class="cls-4">
    <path class="cls-3" d="M27.16,22.75c3.69,0,6.68-2.99,6.68-6.68s-2.99-6.68-6.68-6.68-6.68,2.99-6.68,6.68,2.99,6.68,6.68,6.68"/>
    <path class="cls-2" d="M33.89,28.77c.25,0,.47,0,.63,0,.98,0,1.77-.88,1.77-1.97s-.8-1.97-1.77-1.97c-.29,0-1.36.02-2.76,0-1.52-.03-2.01-.37-3.6-.52-1.59-.15-2.66-.06-3.23-.03"/>
    <path class="cls-2" d="M14.36,39.01c.18-.07,1.96-1.01,5.22-.6,2.07.26,3.62,1.71,6.25,1.71s6.59.09,7.57.09,1.77-.82,1.77-1.84-.82-1.8-1.8-1.8"/>
    <path class="cls-2" d="M27.8,24.2c-.18-2.3,1.07-4.16,1.38-5.14.31-.98.37-1.95.37-2.94s-.63-1.79-1.55-1.79c-.67,0-1.24.41-1.51,1.01-.1.23-.43,2.55-1.47,4.08-.91,1.34-3,3.25-4.04,4.72-1.04,1.47-1.78,3.92-3.06,4.47-1.29.55-3.86-.2-4.29-.43"/>
    <path class="cls-2" d="M33.21,36.59h.58c.98,0,1.78-.88,1.78-1.97s-.8-1.97-1.78-1.97"/>
    <path class="cls-2" d="M34.74,28.76c.9.08,1.64.92,1.64,1.94,0,1.09-.8,1.97-1.77,1.97h-.51"/>
  </g>
</svg>