<?xml version="1.0" encoding="UTF-8"?>
<svg id="Ebene_1" data-name="Ebene 1" xmlns="http://www.w3.org/2000/svg" viewBox="0 0 50 50">
  <defs>
    <style>
      .cls-1 {
        fill: none;
        stroke: #1d1d1b;
        stroke-width: .36px;
      }
    </style>
  </defs>
  <g>
    <path class="cls-1" d="M35.44,43.68l-21.05-.09c-3.48-6.23-6.97-12.45-10.45-18.68,3.54-6.19,7.07-12.39,10.61-18.58l21.05.09c3.48,6.23,6.97,12.45,10.45,18.68-3.54,6.19-7.07,12.39-10.61,18.58Z"/>
    <g>
      <path class="cls-1" d="M24.94,36.29c-4.52-.02-8.17-3.7-8.15-8.22s8.25-14.35,8.25-14.35c0,0,8.14,9.9,8.12,14.42-.02,4.52-3.7,8.17-8.22,8.15Z"/>
      <path class="cls-1" d="M30.34,28.95c-.01,2.52-2.06,4.56-4.59,4.55"/>
    </g>
  </g>
  <line class="cls-1" x1="14.54" y1="6.42" x2="35.46" y2="43.58"/>
</svg>