<?xml version="1.0" encoding="UTF-8"?>
<svg id="Ebene_1" data-name="Ebene 1" xmlns="http://www.w3.org/2000/svg" xmlns:xlink="http://www.w3.org/1999/xlink" viewBox="0 0 50 50">
  <defs>
    <style>
      .cls-1, .cls-2 {
        fill: none;
      }

      .cls-3 {
        fill: #75b558;
      }

      .cls-2 {
        stroke: #1d1d1b;
        stroke-linecap: round;
        stroke-linejoin: round;
        stroke-width: .8px;
      }

      .cls-4 {
        clip-path: url(#clippath);
      }
    </style>
    <clipPath id="clippath">
      <rect class="cls-1" x="14.07" y="13.25" width="21.86" height="27.35"/>
    </clipPath>
  </defs>
  <g class="cls-4">
    <path class="cls-3" d="M25.03,35.04c6.02,0,10.9-4.88,10.9-10.9s-4.88-10.9-10.9-10.9-10.9,4.88-10.9,10.9,4.88,10.9,10.9,10.9"/>
    <path class="cls-2" d="M26.52,21.78c-.04,1.06.79,1.95,1.85,1.99,1.06.04,1.95-.79,1.99-2,0-.14.06-1.87.1-2.93.04-1.06-.79-1.95-1.85-1.99-1.06-.04-1.95.79-1.99,1.85"/>
    <path class="cls-2" d="M32.63,40.03c-.06-.2-1.03-2.29-.94-4.95.08-2.25,1.89-2.78,1.99-5.63.1-2.85.24-8.19.27-9.25.04-1.06-.73-1.95-1.72-1.98-.99-.03-1.78.82-1.81,1.88"/>
    <path class="cls-2" d="M33.91,21.47c-.01.24-.02.43-.02.56-.04,1.06-.87,1.89-1.85,1.86-.99-.03-1.72-.94-1.68-2"/>
    <path class="cls-2" d="M22.8,18.85s.02-.59.05-1.65c.04-1.06.93-1.89,1.99-1.85,1.06.04,1.89.93,1.85,1.99-.04,1.06-.16,4.24-.16,4.24,0,0,0,.46,0,.56-.04,1.06-.93,1.89-1.99,1.85"/>
    <path class="cls-2" d="M26.47,30.69c.03-.29.03-.59.04-.89.08-2.27-1.54-4.13-3.8-4.21-.22,0-.68-.06-1.02-.1-1.72-.23-3.45-2.13-3.46-2.08"/>
    <path class="cls-2" d="M22.69,21.75c0-.13.15-3.56.18-4.62.04-1.06-.79-1.95-1.85-1.98-1.06-.04-1.95.79-1.99,1.85,0,.31-.05,1.47-.11,2.98"/>
    <path class="cls-2" d="M20.81,40.2c.78-3.48.51-5.15-.27-6.5-.69-1.19-3.36-3.21-4.96-4.88-1.6-1.66-1.09-3.94-.77-4.63.32-.68.94-2.16,1.36-3.14.41-.98,1.54-1.43,2.52-1.02.04.02.09,0,.24.1.23.14,1,.74,1.98,1.2.98.47,2.24,1.06,2.38,1.1.7.22,1.16.75,1.13,1.52-.03.92-.91,1.66-1.83,1.63"/>
  </g>
</svg>