<?xml version="1.0" encoding="UTF-8"?>
<svg id="Ebene_1" data-name="Ebene 1" xmlns="http://www.w3.org/2000/svg" viewBox="0 0 50 50">
  <defs>
    <style>
      .cls-1 {
        fill: #f5ca00;
      }

      .cls-2 {
        fill: #1d1d1b;
      }

      .cls-3 {
        stroke-width: 1.08px;
      }

      .cls-3, .cls-4 {
        fill: none;
        stroke: #1d1d1b;
      }

      .cls-4 {
        stroke-width: .72px;
      }
    </style>
  </defs>
  <path class="cls-3" d="M35.32,43.27H14.69c-3.44-6.09-6.88-12.18-10.33-18.27,3.44-6.09,6.88-12.18,10.33-18.27h20.63c3.44,6.09,6.88,12.18,10.32,18.27-3.44,6.09-6.88,12.18-10.32,18.27Z"/>
  <path class="cls-2" d="M22.34,13.03c1.09,0,1.97-.88,1.97-1.97s-.88-1.97-1.97-1.97-1.97.88-1.97,1.97.88,1.97,1.97,1.97"/>
  <path class="cls-2" d="M27.36,13.03c1.09,0,1.97-.88,1.97-1.97s-.88-1.97-1.97-1.97-1.97.88-1.97,1.97.88,1.97,1.97,1.97"/>
  <path class="cls-1" d="M26.74,39.3c3.52,0,6.37-3.26,6.37-7.29s-6.37-12.81-6.37-12.81c0,0-6.37,8.78-6.37,12.81s2.85,7.29,6.37,7.29"/>
  <path class="cls-4" d="M25,39.46c-4.52,0-8.19-3.66-8.19-8.19s8.19-14.38,8.19-14.38c0,0,8.19,9.86,8.19,14.38s-3.67,8.19-8.19,8.19Z"/>
  <path class="cls-4" d="M30.37,32.1c0,2.52-2.05,4.57-4.57,4.57"/>
</svg>