<?xml version="1.0" encoding="UTF-8"?>
<svg id="Ebene_1" data-name="Ebene 1" xmlns="http://www.w3.org/2000/svg" viewBox="0 0 50 50">
  <defs>
    <style>
      .cls-1 {
        fill: #fade7b;
      }

      .cls-2 {
        fill: #1d1d1b;
      }

      .cls-3 {
        fill: none;
        stroke: #1d1d1b;
        stroke-width: .36px;
      }
    </style>
  </defs>
  <path class="cls-3" d="M35.44,43.68l-21.05-.09c-3.48-6.23-6.97-12.45-10.45-18.68,3.54-6.19,7.07-12.39,10.61-18.58l21.05.09c3.48,6.23,6.97,12.45,10.45,18.68-3.54,6.19-7.07,12.39-10.61,18.58Z"/>
  <path class="cls-1" d="M26.69,38.48c3.52.02,6.38-3.18,6.4-7.15s-6.31-12.63-6.31-12.63c0,0-6.41,8.62-6.42,12.58s2.82,7.19,6.34,7.2"/>
  <path class="cls-3" d="M24.94,39.12c-4.52-.02-8.17-3.7-8.15-8.22s8.25-14.35,8.25-14.35c0,0,8.14,9.9,8.12,14.42-.02,4.52-3.7,8.17-8.22,8.15Z"/>
  <path class="cls-3" d="M30.34,31.78c-.01,2.52-2.06,4.56-4.59,4.55"/>
  <path class="cls-2" d="M25.05,13c1.09,0,1.97-.87,1.98-1.96s-.87-1.97-1.96-1.98-1.97.87-1.98,1.96.87,1.97,1.96,1.98"/>
</svg>