<?xml version="1.0" encoding="UTF-8"?>
<svg id="Ebene_1" data-name="Ebene 1" xmlns="http://www.w3.org/2000/svg" xmlns:xlink="http://www.w3.org/1999/xlink" viewBox="0 0 50 50">
  <defs>
    <style>
      .cls-1, .cls-2 {
        fill: none;
      }

      .cls-3 {
        fill: #d76034;
      }

      .cls-2 {
        stroke: #1d1d1b;
        stroke-linecap: round;
        stroke-linejoin: round;
        stroke-width: .8px;
      }

      .cls-4 {
        clip-path: url(#clippath);
      }
    </style>
    <clipPath id="clippath">
      <rect class="cls-1" x="12.03" y="7.28" width="25.95" height="33.32"/>
    </clipPath>
  </defs>
  <g class="cls-4">
    <path class="cls-3" d="M24.46,36.3c4.28,0,7.75-3.47,7.75-7.75s-3.47-7.75-7.75-7.75-7.75,3.47-7.75,7.75,3.47,7.75,7.75,7.75"/>
    <path class="cls-2" d="M30,40.14c-.73-1.95-.86-3.43-.21-4.85.65-1.42,1.59-3.38,2.67-5.81,1.08-2.43,4.54-10.32,4.95-11.23.4-.91.05-1.94-.8-2.32-.84-.38-1.73.12-2.26.96-.56.89-3.17,4.96-3.17,4.96,0,0,2.11-8.2,2.34-9.16.23-.96-.36-1.93-1.33-2.17-.96-.23-1.93.36-2.16,1.33-.23.96-3.12,9.16-3.12,9.16,0,0,1.37-10.25,1.54-11.23.17-.98-.48-1.91-1.46-2.08s-1.91.48-2.08,1.46c-.17.98-.27,1.52-.27,1.52l-1.13,9.71"/>
    <path class="cls-2" d="M23.49,20.52s-.77-8.15-.87-9.13c-.1-.99-.99-1.7-1.97-1.6-.99.1-1.61.98-1.6,1.97.02,1.25.2,11.6.2,13.53"/>
    <path class="cls-2" d="M23.28,31.35c.07-.29.15-.6.17-.91.13-1.72-1.21-3.77-3.32-4.69-.21-.09-.65-.31-.99-.4-1.72-.48-2.24-2.92-2.33-3.11-.08-.17-.1-.25-.15-.34-.47-.94-1.32-1.5-1.78-1.74-.26-.13-.54-.25-.86-.25-.88,0-1.59.71-1.59,1.59,0,.27.07.53.19.75.27.5,1.49,1.43,1.8,2.66.31,1.23.31,4.03,1.44,5.46,1.13,1.43,3.72,2.94,4.58,4.23.85,1.3.23,3.11.1,3.65-.13.55-.42,1.47-.55,1.95"/>
  </g>
</svg>