<?xml version="1.0" encoding="UTF-8"?>
<svg id="Ebene_1" data-name="Ebene 1" xmlns="http://www.w3.org/2000/svg" xmlns:xlink="http://www.w3.org/1999/xlink" viewBox="0 0 50 50">
  <defs>
    <style>
      .cls-1, .cls-2 {
        fill: none;
      }

      .cls-3 {
        fill: #caad89;
      }

      .cls-2 {
        stroke: #1d1d1b;
        stroke-linecap: round;
        stroke-linejoin: round;
        stroke-width: .8px;
      }

      .cls-4 {
        clip-path: url(#clippath);
      }
    </style>
    <clipPath id="clippath">
      <rect class="cls-1" x="7.89" y="14.21" width="34.23" height="25.42"/>
    </clipPath>
  </defs>
  <g class="cls-4">
    <path class="cls-3" d="M29.69,39.63c6.86,0,12.42-4.42,12.42-9.86s-5.56-9.86-12.42-9.86-12.42,4.42-12.42,9.86,5.56,9.86,12.42,9.86"/>
    <path class="cls-2" d="M23.18,31.94c.4.09,10.71,1.99,11.62,2.18.24.05.65.11.91.07,1.08-.13,1.84-1.11,1.71-2.19-.08-.69-.52-1.25-1.1-1.53-.33-.16-4.08-.88-5.5-1.15-1.42-.27-3.09-.62-3.52-.9-.51-.33-.84-.76-1.35-1.08-.68-.43-2.33-1.39-4.43-1.68-2.01-.27-3.8-.12-4.94.52-.66.38-1.54,1.02-2.31,1.09-.77.07-4.36-.66-4.78-.75"/>
    <path class="cls-2" d="M34.83,29.81s5.11-5.06,5.63-5.66c.54-.62.53-1.48-.04-2.03-.57-.55-1.4-.54-2.07.16-.12.13-1.65,1.7-1.65,1.7"/>
    <path class="cls-2" d="M32.76,23.84c.49-.52.48-1.34-.04-1.83-.52-.49-1.34-.48-1.83.04-.37.39-3.3,3.46-4.98,5.21"/>
    <path class="cls-2" d="M37.27,31.4c1.76-1.86,3.67-3.87,4-4.22.55-.57.56-1.45.03-1.97s-1.47-.43-2.02.15"/>
    <path class="cls-2" d="M8.29,34.97c.15-.05,1.63-.73,4.25-.27,1.66.3,2.6,1.38,4.94,1.75,2.21.34,10.24,1.68,10.89,1.79.28.05.84.06,1.22.02.68-.08,1.16-.34,1.6-.8.58-.6,3.3-3.32,3.3-3.32"/>
    <path class="cls-2" d="M31.45,29.35c1.59-1.63,5.21-5.35,5.64-5.8.55-.57.55-1.49-.02-2.04-.57-.55-1.45-.5-2.03.04-.54.51-.99.95-.99.95l-5.93,6.19"/>
  </g>
</svg>