<?xml version="1.0" encoding="UTF-8"?>
<svg id="Ebene_1" data-name="Ebene 1" xmlns="http://www.w3.org/2000/svg" viewBox="0 0 50 50">
  <defs>
    <style>
      .cls-1 {
        fill: #cd1719;
      }

      .cls-2 {
        fill: #1d1d1b;
      }

      .cls-3, .cls-4, .cls-5, .cls-6 {
        fill: none;
        stroke: #1d1d1b;
      }

      .cls-3, .cls-5, .cls-6 {
        stroke-width: .72px;
      }

      .cls-3, .cls-6 {
        stroke-linecap: round;
      }

      .cls-4 {
        stroke-width: 1.08px;
      }

      .cls-6 {
        stroke-linejoin: round;
      }
    </style>
  </defs>
  <g>
    <path class="cls-4" d="M35.32,43.27H14.69c-3.44-6.09-6.88-12.18-10.33-18.27,3.44-6.09,6.88-12.18,10.33-18.27h20.63c3.44,6.09,6.88,12.18,10.32,18.27-3.44,6.09-6.88,12.18-10.32,18.27Z"/>
    <path class="cls-2" d="M19.99,13.03c1.09,0,1.97-.88,1.97-1.97s-.88-1.97-1.97-1.97-1.97.88-1.97,1.97.88,1.97,1.97,1.97"/>
    <path class="cls-2" d="M25,13.03c1.09,0,1.97-.88,1.97-1.97s-.88-1.97-1.97-1.97-1.97.88-1.97,1.97.88,1.97,1.97,1.97"/>
    <path class="cls-2" d="M30.01,13.03c1.09,0,1.97-.88,1.97-1.97s-.88-1.97-1.97-1.97-1.97.88-1.97,1.97.88,1.97,1.97,1.97"/>
  </g>
  <g>
    <path class="cls-1" d="M14.49,27.24c-.05-.79.65-1.63,1.71-1.76,2.79-.33,4.37.22,7.12-.88,2.39-.95,3-2.12,6.38-2.3,4.39-.23,8.04,1.4,8.16,3.65.09,1.65-1.83,3.22-4.6,4.02-2.63.76-4.31,1.06-6.93,1.19-5.6.29-10.29-1-11.49-3.05-.11-.17-.32-.55-.34-.87"/>
    <path class="cls-5" d="M12.14,26.29c0-.86.81-1.75,1.96-1.83,3.07-.2,4.76.49,7.84-.55,2.66-.9,3.4-2.16,7.1-2.16,4.81,0,8.71,2,8.71,4.47,0,1.82-2.18,3.42-5.26,4.14-2.92.68-4.77.91-7.64.91-6.14,0-11.19-1.68-12.38-4.01-.11-.2-.32-.63-.32-.97Z"/>
    <path class="cls-6" d="M37.73,26s.02,1.97.02,4.44c0,1.82-2.18,3.42-5.26,4.14-2.92.68-4.77.91-7.64.91-6.14,0-11.19-1.69-12.38-4.01-.11-.2-.32-.62-.32-.97,0-.86,0-4.19,0-4.19"/>
    <line class="cls-3" x1="31.06" y1="24.08" x2="34.1" y2="27.19"/>
    <line class="cls-3" x1="27.67" y1="24.61" x2="31.19" y2="28.22"/>
    <line class="cls-3" x1="24.78" y1="25.71" x2="27.81" y2="28.82"/>
    <line class="cls-3" x1="21.36" y1="26.18" x2="24.39" y2="29.29"/>
  </g>
</svg>