<?xml version="1.0" encoding="UTF-8"?>
<svg id="Ebene_1" data-name="Ebene 1" xmlns="http://www.w3.org/2000/svg" viewBox="0 0 50 50">
  <defs>
    <style>
      .cls-1 {
        fill: #1d1d1b;
      }

      .cls-2 {
        stroke-width: 1.08px;
      }

      .cls-2, .cls-3, .cls-4 {
        fill: none;
        stroke: #1d1d1b;
      }

      .cls-3, .cls-4 {
        stroke-width: .72px;
      }

      .cls-5 {
        fill: #3fa535;
      }

      .cls-4 {
        stroke-linecap: round;
        stroke-linejoin: round;
      }
    </style>
  </defs>
  <path class="cls-2" d="M35.42,43.21l-20.63.12c-3.48-6.07-6.95-12.14-10.43-18.21,3.41-6.11,6.81-12.22,10.22-18.33l20.63-.12c3.48,6.07,6.95,12.14,10.43,18.21-3.41,6.11-6.81,12.22-10.22,18.33Z"/>
  <path class="cls-1" d="M31.08,10.08v1.31s1.31,0,1.31,0v.34s-1.3,0-1.3,0v1.33s-.34,0-.34,0v-1.33s-1.3,0-1.3,0v-.34s1.29,0,1.29,0v-1.31s.34,0,.34,0Z"/>
  <g>
    <path class="cls-1" d="M21.23,13.41c1.09,0,1.96-.89,1.96-1.98s-.89-1.96-1.98-1.96-1.96.89-1.96,1.98.89,1.96,1.98,1.96"/>
    <path class="cls-1" d="M26.24,13.38c1.09,0,1.96-.89,1.96-1.98s-.89-1.96-1.98-1.96-1.96.89-1.96,1.98.89,1.96,1.98,1.96"/>
    <path class="cls-5" d="M28.61,23.09c.29-.02.59.04.87.2.51.29.81.83.96,1.44.12.53.09.41.16.9.26,1.97.26,3.74-.04,6-.33,2.54-.91,4.87-1.71,6.4-.03.06-.13.28-.19.38-.51.84-1.37,1.37-2.35,1.38-1.12,0-2.09-.67-2.63-1.71-.85-1.51-1.66-3.86-2.08-6.39-.38-2.25-.44-4.01-.26-5.99.05-.49.02-.37.12-.9.12-.61.41-1.17.9-1.47.28-.17.57-.24.86-.23.61.03,1.38.36,2.62.32,1.2-.03,2.16-.28,2.77-.33"/>
    <path class="cls-5" d="M29.17,23.1c.45-.43,1.05-.71,1.72-.73,1.43-.05,2.47.91,2.73,2.51.42,1.99.53,3.78.3,6.1-.28,2.78-1.01,5.14-1.94,6.72-.55.99-1.26,1.45-2.26,1.48-.49.02-.96-.11-1.36-.34"/>
    <path class="cls-4" d="M28.59,22.83c.35-.02.71.04,1.05.2.61.29.98.85,1.15,1.47.15.54.1.42.18.92.3,2.02.3,3.83-.07,6.15-.42,2.61-1.13,5-2.1,6.57-.04.07-.16.29-.23.39-.63.86-1.66,1.42-2.85,1.42-1.35,0-2.53-.68-3.18-1.74-1.02-1.54-1.99-3.95-2.49-6.54-.45-2.3-.51-4.11-.28-6.14.06-.5.02-.38.15-.92.15-.63.5-1.2,1.1-1.51.33-.17.69-.25,1.04-.23.74.02,1.67.36,3.17.31,1.45-.04,2.62-.3,3.36-.35Z"/>
    <path class="cls-4" d="M20.54,23.35c-.48-.5-1.15-.81-1.89-.81-1.43,0-2.43,1.01-2.63,2.61-.35,2-.39,3.8-.07,6.11.38,2.76,1.2,5.1,2.19,6.64.58.97,1.31,1.4,2.32,1.39.87,0,1.63-.44,2.1-1.09"/>
    <path class="cls-4" d="M29.44,22.95c.45-.43,1.05-.71,1.72-.73,1.43-.05,2.47.91,2.73,2.51.42,1.99.53,3.78.3,6.1-.28,2.78-1.01,5.14-1.94,6.72-.55.99-1.26,1.45-2.26,1.48-.49.02-.96-.11-1.36-.34"/>
    <path class="cls-4" d="M20.23,23.04s1.54-.63,2.42-1.37c1.02-.87,1.03-1.85,1.55-3.2.52-1.35,1.91-2.36,2.55-2.09.69.3-.45,1.66-.75,2.3-.3.63-.67,1.86.47,2.59,1,.64,2.01,1.06,2.52,1.57"/>
    <path class="cls-4" d="M28.15,35.46c-.31,1.57-1.69,2.75-3.35,2.76-.07,0-.14,0-.21,0"/>
    <path class="cls-3" d="M22.82,21.56c-.48-.4-1.27-.65-2.18-.65-1.45,0-2.63.37-2.62,1.53,0,.06,0,.13.02.19"/>
    <path class="cls-4" d="M27.06,21.44c.47-.4,1.27-.67,2.17-.67,1.45,0,2.63.34,2.64,1.5"/>
  </g>
</svg>