<?xml version="1.0" encoding="UTF-8"?>
<svg id="Ebene_1" data-name="Ebene 1" xmlns="http://www.w3.org/2000/svg" viewBox="0 0 183 39">
  <defs>
    <style>
      .cls-1 {
        fill: none;
      }
    </style>
  </defs>
  <rect class="cls-1" x="-9" y="2.22" width="201" height="38.56"/>
  <path d="M5.06,17.02V6.24H1.48v-3.28h10.98v3.28h-3.56v10.78h-3.84Z"/>
  <path d="M21.7,17.04l-2.58-5.08h-1.2v5.06h-3.8V2.96h6.42c2.8,0,4.28,1.28,4.28,3.44v1.94c0,1.36-.76,2.42-2.04,2.98l2.56,4.54v1.18h-3.64ZM17.92,9.24h1.4c.94,0,1.62-.3,1.62-1.24v-.9c0-.72-.54-1.18-1.58-1.18h-1.44v3.32Z"/>
  <path d="M26.22,17.02v-1.18l3.6-12.88h5.48l3.74,12.9v1.16h-3.74l-.7-2.88h-4.14l-.7,2.88h-3.54ZM31.22,10.96h2.6l-1.2-4.94h-.2l-1.2,4.94Z"/>
  <path d="M40.68,17.02V2.98h4.08l4.04,8.06h.06V2.98h3.62v14.04h-3.9l-4.2-7.98h-.06v7.98h-3.64Z"/>
  <path d="M59.72,17.42c-4.24,0-5.18-1.72-5.18-3.42v-1.62l3.66-.12v.86c0,.88.4,1.34,1.56,1.34s1.58-.68,1.56-1.54c0-.76-.22-1.28-1.38-1.6l-2.16-.56c-2.32-.58-3.34-1.8-3.34-3.88,0-2.46,1.62-4.32,5.6-4.32s4.98,1.54,4.98,3.36v1.4l-3.56.12v-.9c0-.68-.4-1.2-1.5-1.2-.98,0-1.48.46-1.5,1.24-.02.8.42,1.3,1.52,1.58l2.12.52c2.36.58,3.26,1.76,3.26,3.88,0,2.76-1.7,4.86-5.64,4.86Z"/>
  <path d="M67.28,17.02V2.96h9.2v3.26h-5.34v2.9h4.86v3.2h-4.86v4.7h-3.86Z"/>
  <path d="M83.8,17.42c-4.58,0-5.88-2.68-5.88-5.12v-4.38c0-2.44,1.36-5.36,6.12-5.36s5.84,2.72,5.84,5.14v4.48c0,2.4-1.22,5.24-6.08,5.24ZM83.9,14.28c1.36,0,1.96-.84,1.96-1.88v-4.8c0-1.16-.58-1.94-1.94-1.94s-2,.74-2,1.96v4.76c0,1.18.68,1.9,1.98,1.9Z"/>
  <path d="M99.72,17.04l-2.58-5.08h-1.2v5.06h-3.8V2.96h6.42c2.8,0,4.28,1.28,4.28,3.44v1.94c0,1.36-.76,2.42-2.04,2.98l2.56,4.54v1.18h-3.64ZM95.94,9.24h1.4c.94,0,1.62-.3,1.62-1.24v-.9c0-.72-.54-1.18-1.58-1.18h-1.44v3.32Z"/>
  <path d="M105.18,17.02V2.96h4.74l2.52,6.82h.08l2.72-6.82h4.56v14.06h-3.46V7.62h-.06l-2.74,6.74h-2.18l-2.64-6.74h-.06v9.4h-3.48Z"/>
  <path d="M121.48,17.02v-1.18l3.6-12.88h5.48l3.74,12.9v1.16h-3.74l-.7-2.88h-4.14l-.7,2.88h-3.54ZM126.48,10.96h2.6l-1.2-4.94h-.2l-1.2,4.94Z"/>
  <path d="M137.12,17.02V6.24h-3.58v-3.28h10.98v3.28h-3.56v10.78h-3.84Z"/>
  <path d="M145.78,17.04v-2.84h1.54V5.8h-1.54v-2.84h6.92v2.84h-1.52v8.4h1.52v2.84h-6.92Z"/>
  <path d="M160.44,17.42c-4.58,0-5.88-2.68-5.88-5.12v-4.38c0-2.44,1.36-5.36,6.12-5.36s5.84,2.72,5.84,5.14v4.48c0,2.4-1.22,5.24-6.08,5.24ZM160.54,14.28c1.36,0,1.96-.84,1.96-1.88v-4.8c0-1.16-.58-1.94-1.94-1.94s-2,.74-2,1.96v4.76c0,1.18.68,1.9,1.98,1.9Z"/>
  <path d="M168.78,17.02V2.98h4.08l4.04,8.06h.06V2.98h3.62v14.04h-3.9l-4.2-7.98h-.06v7.98h-3.64Z"/>
  <path d="M36.28,36.42c-4.56,0-5.78-2.64-5.78-5.12v-4.38c0-2.44,1.26-5.36,6-5.36,4.4,0,5.38,2.56,5.38,4.52v.98l-3.86.12v-1c0-.82-.32-1.54-1.64-1.54s-1.88.74-1.88,1.94v4.9c0,1.16.6,1.88,1.88,1.88s1.66-.76,1.66-1.66v-1.1l3.86.14v1.16c0,1.7-.9,4.52-5.62,4.52Z"/>
  <path d="M42.62,36.02v-1.18l3.6-12.88h5.48l3.74,12.9v1.16h-3.74l-.7-2.88h-4.14l-.7,2.88h-3.54ZM47.62,29.96h2.6l-1.2-4.94h-.2l-1.2,4.94Z"/>
  <path d="M57.08,36.02v-14.06h3.86v10.76h4.62v3.3h-8.48Z"/>
  <path d="M72.68,36.42c-4.56,0-5.78-2.64-5.78-5.12v-4.38c0-2.44,1.26-5.36,6-5.36,4.4,0,5.38,2.56,5.38,4.52v.98l-3.86.12v-1c0-.82-.32-1.54-1.64-1.54s-1.88.74-1.88,1.94v4.9c0,1.16.6,1.88,1.88,1.88s1.66-.76,1.66-1.66v-1.1l3.86.14v1.16c0,1.7-.9,4.52-5.62,4.52Z"/>
  <path d="M85.84,36.32c-4.36,0-5.54-2.3-5.54-4.86v-9.5h3.86v9.46c0,1.26.46,1.82,1.66,1.82s1.64-.68,1.64-1.8v-9.48h3.86v9.4c0,2.52-1.2,4.96-5.48,4.96Z"/>
  <path d="M93.84,36.02v-14.06h3.86v10.76h4.62v3.3h-8.48Z"/>
  <path d="M103.48,36.02v-1.18l3.6-12.88h5.48l3.74,12.9v1.16h-3.74l-.7-2.88h-4.14l-.7,2.88h-3.54ZM108.48,29.96h2.6l-1.2-4.94h-.2l-1.2,4.94Z"/>
  <path d="M119.12,36.02v-10.78h-3.58v-3.28h10.98v3.28h-3.56v10.78h-3.84Z"/>
  <path d="M133.38,36.42c-4.58,0-5.88-2.68-5.88-5.12v-4.38c0-2.44,1.36-5.36,6.12-5.36s5.84,2.72,5.84,5.14v4.48c0,2.4-1.22,5.24-6.08,5.24ZM133.48,33.28c1.36,0,1.96-.84,1.96-1.88v-4.8c0-1.16-.58-1.94-1.94-1.94s-2,.74-2,1.96v4.76c0,1.18.68,1.9,1.98,1.9Z"/>
  <path d="M149.3,36.04l-2.58-5.08h-1.2v5.06h-3.8v-14.06h6.42c2.8,0,4.28,1.28,4.28,3.44v1.94c0,1.36-.76,2.42-2.04,2.98l2.56,4.54v1.18h-3.64ZM145.52,28.24h1.4c.94,0,1.62-.3,1.62-1.24v-.9c0-.72-.54-1.18-1.58-1.18h-1.44v3.32Z"/>
</svg>